<svg width="252" height="22" viewBox="0 0 252 22" fill="none" xmlns="http://www.w3.org/2000/svg">
<path d="M4.89801e-05 15.36V11.61H15.78V15.36H4.89801e-05ZM5.88005 5.58H9.90005V21.39H5.88005V5.58ZM18.6375 4.44V0.419997H35.0175L24.9075 21.42H20.2875L28.7175 4.44H18.6375ZM46.4447 5.49C46.4447 4.37 46.7447 3.4 47.3447 2.58C47.9447 1.76 48.7447 1.13 49.7447 0.689997C50.7647 0.229997 51.8947 -3.21865e-06 53.1347 -3.21865e-06C54.3547 -3.21865e-06 55.4647 0.229997 56.4647 0.689997C57.4847 1.13 58.2947 1.76 58.8947 2.58C59.5147 3.4 59.8247 4.37 59.8247 5.49C59.8247 6.41 59.6347 7.22 59.2547 7.92C58.8947 8.6 58.3947 9.17 57.7547 9.63C57.1347 10.09 56.4247 10.44 55.6247 10.68C54.8247 10.92 53.9947 11.04 53.1347 11.04C52.2747 11.04 51.4447 10.92 50.6447 10.68C49.8447 10.44 49.1247 10.09 48.4847 9.63C47.8647 9.17 47.3647 8.6 46.9847 7.92C46.6247 7.22 46.4447 6.41 46.4447 5.49ZM50.4647 5.91C50.4647 6.45 50.5847 6.92 50.8247 7.32C51.0647 7.72 51.3847 8.04 51.7847 8.28C52.1847 8.5 52.6347 8.61 53.1347 8.61C53.6347 8.61 54.0847 8.5 54.4847 8.28C54.8847 8.04 55.1947 7.72 55.4147 7.32C55.6547 6.92 55.7747 6.45 55.7747 5.91C55.7747 5.39 55.6647 4.92 55.4447 4.5C55.2247 4.08 54.9147 3.76 54.5147 3.54C54.1147 3.32 53.6547 3.21 53.1347 3.21C52.6147 3.21 52.1547 3.32 51.7547 3.54C51.3547 3.76 51.0347 4.08 50.7947 4.5C50.5747 4.92 50.4647 5.39 50.4647 5.91ZM45.6947 15.72C45.6947 14.66 45.9147 13.75 46.3547 12.99C46.7947 12.21 47.3747 11.57 48.0947 11.07C48.8347 10.57 49.6447 10.2 50.5247 9.96C51.4047 9.72 52.2747 9.6 53.1347 9.6C53.9947 9.6 54.8647 9.72 55.7447 9.96C56.6247 10.2 57.4247 10.57 58.1447 11.07C58.8847 11.57 59.4747 12.21 59.9147 12.99C60.3547 13.75 60.5747 14.66 60.5747 15.72C60.5747 16.64 60.3747 17.48 59.9747 18.24C59.5747 18.98 59.0247 19.62 58.3247 20.16C57.6447 20.7 56.8547 21.12 55.9547 21.42C55.0747 21.7 54.1347 21.84 53.1347 21.84C52.1347 21.84 51.1847 21.7 50.2847 21.42C49.4047 21.12 48.6147 20.7 47.9147 20.16C47.2147 19.62 46.6647 18.98 46.2647 18.24C45.8847 17.48 45.6947 16.64 45.6947 15.72ZM49.9247 15.09C49.9247 15.79 50.0647 16.38 50.3447 16.86C50.6447 17.32 51.0347 17.68 51.5147 17.94C52.0147 18.18 52.5547 18.3 53.1347 18.3C53.6947 18.3 54.2147 18.18 54.6947 17.94C55.1947 17.68 55.5947 17.32 55.8947 16.86C56.1947 16.38 56.3447 15.79 56.3447 15.09C56.3447 14.51 56.1947 13.98 55.8947 13.5C55.5947 13.02 55.1947 12.64 54.6947 12.36C54.2147 12.08 53.6947 11.94 53.1347 11.94C52.5547 11.94 52.0147 12.08 51.5147 12.36C51.0347 12.64 50.6447 13.02 50.3447 13.5C50.0647 13.98 49.9247 14.51 49.9247 15.09ZM67.5216 10.92C67.5216 11.98 67.6216 12.95 67.8216 13.83C68.0216 14.69 68.3116 15.44 68.6916 16.08C69.0716 16.7 69.5216 17.18 70.0416 17.52C70.5616 17.86 71.1416 18.03 71.7816 18.03C72.4416 18.03 73.0316 17.86 73.5516 17.52C74.0716 17.18 74.5216 16.7 74.9016 16.08C75.2816 15.44 75.5716 14.69 75.7716 13.83C75.9716 12.95 76.0716 11.98 76.0716 10.92C76.0716 9.86 75.9716 8.9 75.7716 8.04C75.5716 7.16 75.2816 6.41 74.9016 5.79C74.5216 5.15 74.0716 4.66 73.5516 4.32C73.0316 3.98 72.4416 3.81 71.7816 3.81C71.1416 3.81 70.5616 3.98 70.0416 4.32C69.5216 4.66 69.0716 5.15 68.6916 5.79C68.3116 6.41 68.0216 7.16 67.8216 8.04C67.6216 8.9 67.5216 9.86 67.5216 10.92ZM63.3516 10.92C63.3516 8.7 63.7016 6.78 64.4016 5.16C65.1216 3.54 66.1116 2.29 67.3716 1.41C68.6516 0.509997 70.1216 0.0599978 71.7816 0.0599978C73.5016 0.0599978 74.9916 0.509997 76.2516 1.41C77.5116 2.29 78.4916 3.54 79.1916 5.16C79.8916 6.78 80.2416 8.7 80.2416 10.92C80.2416 13.14 79.8916 15.06 79.1916 16.68C78.4916 18.3 77.5116 19.56 76.2516 20.46C74.9916 21.34 73.5016 21.78 71.7816 21.78C70.1216 21.78 68.6516 21.34 67.3716 20.46C66.1116 19.56 65.1216 18.3 64.4016 16.68C63.7016 15.06 63.3516 13.14 63.3516 10.92ZM86.799 10.92C86.799 11.98 86.899 12.95 87.099 13.83C87.299 14.69 87.589 15.44 87.969 16.08C88.349 16.7 88.799 17.18 89.319 17.52C89.839 17.86 90.419 18.03 91.059 18.03C91.719 18.03 92.309 17.86 92.829 17.52C93.349 17.18 93.799 16.7 94.179 16.08C94.559 15.44 94.849 14.69 95.049 13.83C95.249 12.95 95.349 11.98 95.349 10.92C95.349 9.86 95.249 8.9 95.049 8.04C94.849 7.16 94.559 6.41 94.179 5.79C93.799 5.15 93.349 4.66 92.829 4.32C92.309 3.98 91.719 3.81 91.059 3.81C90.419 3.81 89.839 3.98 89.319 4.32C88.799 4.66 88.349 5.15 87.969 5.79C87.589 6.41 87.299 7.16 87.099 8.04C86.899 8.9 86.799 9.86 86.799 10.92ZM82.629 10.92C82.629 8.7 82.979 6.78 83.679 5.16C84.399 3.54 85.389 2.29 86.649 1.41C87.929 0.509997 89.399 0.0599978 91.059 0.0599978C92.779 0.0599978 94.269 0.509997 95.529 1.41C96.789 2.29 97.769 3.54 98.469 5.16C99.169 6.78 99.519 8.7 99.519 10.92C99.519 13.14 99.169 15.06 98.469 16.68C97.769 18.3 96.789 19.56 95.529 20.46C94.269 21.34 92.779 21.78 91.059 21.78C89.399 21.78 87.929 21.34 86.649 20.46C85.389 19.56 84.399 18.3 83.679 16.68C82.979 15.06 82.629 13.14 82.629 10.92ZM115.07 10.92C115.07 11.98 115.17 12.95 115.37 13.83C115.57 14.69 115.86 15.44 116.24 16.08C116.62 16.7 117.07 17.18 117.59 17.52C118.11 17.86 118.69 18.03 119.33 18.03C119.99 18.03 120.58 17.86 121.1 17.52C121.62 17.18 122.07 16.7 122.45 16.08C122.83 15.44 123.12 14.69 123.32 13.83C123.52 12.95 123.62 11.98 123.62 10.92C123.62 9.86 123.52 8.9 123.32 8.04C123.12 7.16 122.83 6.41 122.45 5.79C122.07 5.15 121.62 4.66 121.1 4.32C120.58 3.98 119.99 3.81 119.33 3.81C118.69 3.81 118.11 3.98 117.59 4.32C117.07 4.66 116.62 5.15 116.24 5.79C115.86 6.41 115.57 7.16 115.37 8.04C115.17 8.9 115.07 9.86 115.07 10.92ZM110.9 10.92C110.9 8.7 111.25 6.78 111.95 5.16C112.67 3.54 113.66 2.29 114.92 1.41C116.2 0.509997 117.67 0.0599978 119.33 0.0599978C121.05 0.0599978 122.54 0.509997 123.8 1.41C125.06 2.29 126.04 3.54 126.74 5.16C127.44 6.78 127.79 8.7 127.79 10.92C127.79 13.14 127.44 15.06 126.74 16.68C126.04 18.3 125.06 19.56 123.8 20.46C122.54 21.34 121.05 21.78 119.33 21.78C117.67 21.78 116.2 21.34 114.92 20.46C113.66 19.56 112.67 18.3 111.95 16.68C111.25 15.06 110.9 13.14 110.9 10.92ZM134.348 10.92C134.348 11.98 134.448 12.95 134.648 13.83C134.848 14.69 135.138 15.44 135.518 16.08C135.898 16.7 136.348 17.18 136.868 17.52C137.388 17.86 137.968 18.03 138.608 18.03C139.268 18.03 139.858 17.86 140.378 17.52C140.898 17.18 141.348 16.7 141.728 16.08C142.108 15.44 142.398 14.69 142.598 13.83C142.798 12.95 142.898 11.98 142.898 10.92C142.898 9.86 142.798 8.9 142.598 8.04C142.398 7.16 142.108 6.41 141.728 5.79C141.348 5.15 140.898 4.66 140.378 4.32C139.858 3.98 139.268 3.81 138.608 3.81C137.968 3.81 137.388 3.98 136.868 4.32C136.348 4.66 135.898 5.15 135.518 5.79C135.138 6.41 134.848 7.16 134.648 8.04C134.448 8.9 134.348 9.86 134.348 10.92ZM130.178 10.92C130.178 8.7 130.528 6.78 131.228 5.16C131.948 3.54 132.938 2.29 134.198 1.41C135.478 0.509997 136.948 0.0599978 138.608 0.0599978C140.328 0.0599978 141.818 0.509997 143.078 1.41C144.338 2.29 145.318 3.54 146.018 5.16C146.718 6.78 147.068 8.7 147.068 10.92C147.068 13.14 146.718 15.06 146.018 16.68C145.318 18.3 144.338 19.56 143.078 20.46C141.818 21.34 140.328 21.78 138.608 21.78C136.948 21.78 135.478 21.34 134.198 20.46C132.938 19.56 131.948 18.3 131.228 16.68C130.528 15.06 130.178 13.14 130.178 10.92ZM153.625 10.92C153.625 11.98 153.725 12.95 153.925 13.83C154.125 14.69 154.415 15.44 154.795 16.08C155.175 16.7 155.625 17.18 156.145 17.52C156.665 17.86 157.245 18.03 157.885 18.03C158.545 18.03 159.135 17.86 159.655 17.52C160.175 17.18 160.625 16.7 161.005 16.08C161.385 15.44 161.675 14.69 161.875 13.83C162.075 12.95 162.175 11.98 162.175 10.92C162.175 9.86 162.075 8.9 161.875 8.04C161.675 7.16 161.385 6.41 161.005 5.79C160.625 5.15 160.175 4.66 159.655 4.32C159.135 3.98 158.545 3.81 157.885 3.81C157.245 3.81 156.665 3.98 156.145 4.32C155.625 4.66 155.175 5.15 154.795 5.79C154.415 6.41 154.125 7.16 153.925 8.04C153.725 8.9 153.625 9.86 153.625 10.92ZM149.455 10.92C149.455 8.7 149.805 6.78 150.505 5.16C151.225 3.54 152.215 2.29 153.475 1.41C154.755 0.509997 156.225 0.0599978 157.885 0.0599978C159.605 0.0599978 161.095 0.509997 162.355 1.41C163.615 2.29 164.595 3.54 165.295 5.16C165.995 6.78 166.345 8.7 166.345 10.92C166.345 13.14 165.995 15.06 165.295 16.68C164.595 18.3 163.615 19.56 162.355 20.46C161.095 21.34 159.605 21.78 157.885 21.78C156.225 21.78 154.755 21.34 153.475 20.46C152.215 19.56 151.225 18.3 150.505 16.68C149.805 15.06 149.455 13.14 149.455 10.92ZM178.657 5.88V2.01L187.867 0.0599978V21.42H183.697V4.56L178.657 5.88ZM193.393 5.88V2.01L202.603 0.0599978V21.42H198.433V4.56L193.393 5.88ZM215.593 21.42L225.133 11.46C225.673 10.88 226.133 10.34 226.513 9.84C226.893 9.34 227.183 8.84 227.383 8.34C227.583 7.84 227.683 7.32 227.683 6.78C227.683 6.4 227.613 6.03 227.473 5.67C227.333 5.31 227.123 4.99 226.843 4.71C226.563 4.43 226.223 4.21 225.823 4.05C225.423 3.87 224.963 3.78 224.443 3.78C223.703 3.78 223.063 3.96 222.523 4.32C222.003 4.66 221.593 5.15 221.293 5.79C221.013 6.43 220.873 7.17 220.873 8.01H216.673C216.673 6.51 216.973 5.16 217.573 3.96C218.173 2.76 219.053 1.81 220.213 1.11C221.393 0.389997 222.833 0.0299964 224.533 0.0299964C225.793 0.0299964 226.893 0.229997 227.833 0.629998C228.793 1.01 229.583 1.52 230.203 2.16C230.843 2.78 231.313 3.47 231.613 4.23C231.933 4.99 232.093 5.75 232.093 6.51C232.093 7.63 231.823 8.68 231.283 9.66C230.743 10.64 230.033 11.53 229.153 12.33L223.693 17.49H232.483V21.42H215.593ZM234.461 21.42L244.001 11.46C244.541 10.88 245.001 10.34 245.381 9.84C245.761 9.34 246.051 8.84 246.251 8.34C246.451 7.84 246.551 7.32 246.551 6.78C246.551 6.4 246.481 6.03 246.341 5.67C246.201 5.31 245.991 4.99 245.711 4.71C245.431 4.43 245.091 4.21 244.691 4.05C244.291 3.87 243.831 3.78 243.311 3.78C242.571 3.78 241.931 3.96 241.391 4.32C240.871 4.66 240.461 5.15 240.161 5.79C239.881 6.43 239.741 7.17 239.741 8.01H235.541C235.541 6.51 235.841 5.16 236.441 3.96C237.041 2.76 237.921 1.81 239.081 1.11C240.261 0.389997 241.701 0.0299964 243.401 0.0299964C244.661 0.0299964 245.761 0.229997 246.701 0.629998C247.661 1.01 248.451 1.52 249.071 2.16C249.711 2.78 250.181 3.47 250.481 4.23C250.801 4.99 250.961 5.75 250.961 6.51C250.961 7.63 250.691 8.68 250.151 9.66C249.611 10.64 248.901 11.53 248.021 12.33L242.561 17.49H251.351V21.42H234.461Z" fill="white"/>
</svg>
