<svg width="228" height="51" viewBox="0 0 228 51" fill="none" xmlns="http://www.w3.org/2000/svg">
<path d="M2.94596e-05 13.58V4.54996L21.49 -3.50475e-05V49.84H11.76V10.5L2.94596e-05 13.58ZM41.9448 25.34C41.9448 27.8133 42.1781 30.0766 42.6448 32.13C43.1115 34.1366 43.7881 35.8866 44.6748 37.38C45.5615 38.8266 46.6115 39.9466 47.8248 40.74C49.0381 41.5333 50.3915 41.93 51.8848 41.93C53.4248 41.93 54.8015 41.5333 56.0148 40.74C57.2281 39.9466 58.2781 38.8266 59.1648 37.38C60.0515 35.8866 60.7281 34.1366 61.1948 32.13C61.6615 30.0766 61.8948 27.8133 61.8948 25.34C61.8948 22.8666 61.6615 20.6266 61.1948 18.62C60.7281 16.5666 60.0515 14.8166 59.1648 13.37C58.2781 11.8766 57.2281 10.7333 56.0148 9.93996C54.8015 9.14663 53.4248 8.74996 51.8848 8.74996C50.3915 8.74996 49.0381 9.14663 47.8248 9.93996C46.6115 10.7333 45.5615 11.8766 44.6748 13.37C43.7881 14.8166 43.1115 16.5666 42.6448 18.62C42.1781 20.6266 41.9448 22.8666 41.9448 25.34ZM32.2148 25.34C32.2148 20.16 33.0315 15.68 34.6648 11.9C36.3448 8.11996 38.6548 5.2033 41.5948 3.14996C44.5815 1.04996 48.0115 -3.50475e-05 51.8848 -3.50475e-05C55.8981 -3.50475e-05 59.3748 1.04996 62.3148 3.14996C65.2548 5.2033 67.5415 8.11996 69.1748 11.9C70.8081 15.68 71.6248 20.16 71.6248 25.34C71.6248 30.52 70.8081 35 69.1748 38.78C67.5415 42.56 65.2548 45.5 62.3148 47.6C59.3748 49.6533 55.8981 50.68 51.8848 50.68C48.0115 50.68 44.5815 49.6533 41.5948 47.6C38.6548 45.5 36.3448 42.56 34.6648 38.78C33.0315 35 32.2148 30.52 32.2148 25.34ZM107.912 25.34C107.912 27.8133 108.145 30.0766 108.612 32.13C109.078 34.1366 109.755 35.8866 110.642 37.38C111.528 38.8266 112.578 39.9466 113.792 40.74C115.005 41.5333 116.358 41.93 117.852 41.93C119.392 41.93 120.768 41.5333 121.982 40.74C123.195 39.9466 124.245 38.8266 125.132 37.38C126.018 35.8866 126.695 34.1366 127.162 32.13C127.628 30.0766 127.862 27.8133 127.862 25.34C127.862 22.8666 127.628 20.6266 127.162 18.62C126.695 16.5666 126.018 14.8166 125.132 13.37C124.245 11.8766 123.195 10.7333 121.982 9.93996C120.768 9.14663 119.392 8.74996 117.852 8.74996C116.358 8.74996 115.005 9.14663 113.792 9.93996C112.578 10.7333 111.528 11.8766 110.642 13.37C109.755 14.8166 109.078 16.5666 108.612 18.62C108.145 20.6266 107.912 22.8666 107.912 25.34ZM98.1816 25.34C98.1816 20.16 98.9983 15.68 100.632 11.9C102.312 8.11996 104.622 5.2033 107.562 3.14996C110.548 1.04996 113.978 -3.50475e-05 117.852 -3.50475e-05C121.865 -3.50475e-05 125.342 1.04996 128.282 3.14996C131.222 5.2033 133.508 8.11996 135.142 11.9C136.775 15.68 137.592 20.16 137.592 25.34C137.592 30.52 136.775 35 135.142 38.78C133.508 42.56 131.222 45.5 128.282 47.6C125.342 49.6533 121.865 50.68 117.852 50.68C113.978 50.68 110.548 49.6533 107.562 47.6C104.622 45.5 102.312 42.56 100.632 38.78C98.9983 35 98.1816 30.52 98.1816 25.34ZM152.892 25.34C152.892 27.8133 153.125 30.0766 153.592 32.13C154.059 34.1366 154.735 35.8866 155.622 37.38C156.509 38.8266 157.559 39.9466 158.772 40.74C159.985 41.5333 161.339 41.93 162.832 41.93C164.372 41.93 165.749 41.5333 166.962 40.74C168.175 39.9466 169.225 38.8266 170.112 37.38C170.999 35.8866 171.675 34.1366 172.142 32.13C172.609 30.0766 172.842 27.8133 172.842 25.34C172.842 22.8666 172.609 20.6266 172.142 18.62C171.675 16.5666 170.999 14.8166 170.112 13.37C169.225 11.8766 168.175 10.7333 166.962 9.93996C165.749 9.14663 164.372 8.74996 162.832 8.74996C161.339 8.74996 159.985 9.14663 158.772 9.93996C157.559 10.7333 156.509 11.8766 155.622 13.37C154.735 14.8166 154.059 16.5666 153.592 18.62C153.125 20.6266 152.892 22.8666 152.892 25.34ZM143.162 25.34C143.162 20.16 143.979 15.68 145.612 11.9C147.292 8.11996 149.602 5.2033 152.542 3.14996C155.529 1.04996 158.959 -3.50475e-05 162.832 -3.50475e-05C166.845 -3.50475e-05 170.322 1.04996 173.262 3.14996C176.202 5.2033 178.489 8.11996 180.122 11.9C181.755 15.68 182.572 20.16 182.572 25.34C182.572 30.52 181.755 35 180.122 38.78C178.489 42.56 176.202 45.5 173.262 47.6C170.322 49.6533 166.845 50.68 162.832 50.68C158.959 50.68 155.529 49.6533 152.542 47.6C149.602 45.5 147.292 42.56 145.612 38.78C143.979 35 143.162 30.52 143.162 25.34ZM197.873 25.34C197.873 27.8133 198.106 30.0766 198.573 32.13C199.039 34.1366 199.716 35.8866 200.603 37.38C201.489 38.8266 202.539 39.9466 203.753 40.74C204.966 41.5333 206.319 41.93 207.813 41.93C209.353 41.93 210.729 41.5333 211.943 40.74C213.156 39.9466 214.206 38.8266 215.093 37.38C215.979 35.8866 216.656 34.1366 217.123 32.13C217.589 30.0766 217.823 27.8133 217.823 25.34C217.823 22.8666 217.589 20.6266 217.123 18.62C216.656 16.5666 215.979 14.8166 215.093 13.37C214.206 11.8766 213.156 10.7333 211.943 9.93996C210.729 9.14663 209.353 8.74996 207.813 8.74996C206.319 8.74996 204.966 9.14663 203.753 9.93996C202.539 10.7333 201.489 11.8766 200.603 13.37C199.716 14.8166 199.039 16.5666 198.573 18.62C198.106 20.6266 197.873 22.8666 197.873 25.34ZM188.143 25.34C188.143 20.16 188.959 15.68 190.593 11.9C192.273 8.11996 194.583 5.2033 197.523 3.14996C200.509 1.04996 203.939 -3.50475e-05 207.813 -3.50475e-05C211.826 -3.50475e-05 215.303 1.04996 218.243 3.14996C221.183 5.2033 223.469 8.11996 225.103 11.9C226.736 15.68 227.553 20.16 227.553 25.34C227.553 30.52 226.736 35 225.103 38.78C223.469 42.56 221.183 45.5 218.243 47.6C215.303 49.6533 211.826 50.68 207.813 50.68C203.939 50.68 200.509 49.6533 197.523 47.6C194.583 45.5 192.273 42.56 190.593 38.78C188.959 35 188.143 30.52 188.143 25.34Z" fill="#D52027"/>
</svg>
