<svg width="213" height="37" viewBox="0 0 213 37" fill="none" xmlns="http://www.w3.org/2000/svg">
<path d="M-4.87119e-05 9.7001V3.2501L15.35 9.70364e-05V35.6001H8.39995V7.5001L-4.87119e-05 9.7001ZM29.9605 18.1001C29.9605 19.8668 30.1272 21.4834 30.4605 22.9501C30.7938 24.3834 31.2772 25.6334 31.9105 26.7001C32.5438 27.7334 33.2938 28.5334 34.1605 29.1001C35.0272 29.6668 35.9938 29.9501 37.0605 29.9501C38.1605 29.9501 39.1438 29.6668 40.0105 29.1001C40.8772 28.5334 41.6272 27.7334 42.2605 26.7001C42.8938 25.6334 43.3772 24.3834 43.7105 22.9501C44.0438 21.4834 44.2105 19.8668 44.2105 18.1001C44.2105 16.3334 44.0438 14.7334 43.7105 13.3001C43.3772 11.8334 42.8938 10.5834 42.2605 9.5501C41.6272 8.48343 40.8772 7.66676 40.0105 7.1001C39.1438 6.53343 38.1605 6.2501 37.0605 6.2501C35.9938 6.2501 35.0272 6.53343 34.1605 7.1001C33.2938 7.66676 32.5438 8.48343 31.9105 9.5501C31.2772 10.5834 30.7938 11.8334 30.4605 13.3001C30.1272 14.7334 29.9605 16.3334 29.9605 18.1001ZM23.0105 18.1001C23.0105 14.4001 23.5938 11.2001 24.7605 8.50009C25.9605 5.8001 27.6105 3.71676 29.7105 2.25009C31.8438 0.750096 34.2938 9.70364e-05 37.0605 9.70364e-05C39.9272 9.70364e-05 42.4105 0.750096 44.5105 2.25009C46.6105 3.71676 48.2438 5.8001 49.4105 8.50009C50.5772 11.2001 51.1605 14.4001 51.1605 18.1001C51.1605 21.8001 50.5772 25.0001 49.4105 27.7001C48.2438 30.4001 46.6105 32.5001 44.5105 34.0001C42.4105 35.4668 39.9272 36.2001 37.0605 36.2001C34.2938 36.2001 31.8438 35.4668 29.7105 34.0001C27.6105 32.5001 25.9605 30.4001 24.7605 27.7001C23.5938 25.0001 23.0105 21.8001 23.0105 18.1001ZM56.9394 32.6501C56.9394 31.5168 57.3227 30.5668 58.0894 29.8001C58.8894 29.0001 59.8727 28.6001 61.0394 28.6001C62.2394 28.6001 63.2227 29.0001 63.9894 29.8001C64.7561 30.5668 65.1394 31.5168 65.1394 32.6501C65.1394 33.7168 64.7561 34.6501 63.9894 35.4501C63.2227 36.2501 62.2394 36.6501 61.0394 36.6501C59.8727 36.6501 58.8894 36.2501 58.0894 35.4501C57.3227 34.6501 56.9394 33.7168 56.9394 32.6501ZM77.8609 18.1001C77.8609 19.8668 78.0276 21.4834 78.3609 22.9501C78.6942 24.3834 79.1776 25.6334 79.8109 26.7001C80.4442 27.7334 81.1942 28.5334 82.0609 29.1001C82.9276 29.6668 83.8942 29.9501 84.9609 29.9501C86.0609 29.9501 87.0442 29.6668 87.9109 29.1001C88.7776 28.5334 89.5276 27.7334 90.1609 26.7001C90.7942 25.6334 91.2776 24.3834 91.6109 22.9501C91.9442 21.4834 92.1109 19.8668 92.1109 18.1001C92.1109 16.3334 91.9442 14.7334 91.6109 13.3001C91.2776 11.8334 90.7942 10.5834 90.1609 9.5501C89.5276 8.48343 88.7776 7.66676 87.9109 7.1001C87.0442 6.53343 86.0609 6.2501 84.9609 6.2501C83.8942 6.2501 82.9276 6.53343 82.0609 7.1001C81.1942 7.66676 80.4442 8.48343 79.8109 9.5501C79.1776 10.5834 78.6942 11.8334 78.3609 13.3001C78.0276 14.7334 77.8609 16.3334 77.8609 18.1001ZM70.9109 18.1001C70.9109 14.4001 71.4942 11.2001 72.6609 8.50009C73.8609 5.8001 75.5109 3.71676 77.6109 2.25009C79.7442 0.750096 82.1942 9.70364e-05 84.9609 9.70364e-05C87.8276 9.70364e-05 90.3109 0.750096 92.4109 2.25009C94.5109 3.71676 96.1442 5.8001 97.3109 8.50009C98.4776 11.2001 99.0609 14.4001 99.0609 18.1001C99.0609 21.8001 98.4776 25.0001 97.3109 27.7001C96.1442 30.4001 94.5109 32.5001 92.4109 34.0001C90.3109 35.4668 87.8276 36.2001 84.9609 36.2001C82.1942 36.2001 79.7442 35.4668 77.6109 34.0001C75.5109 32.5001 73.8609 30.4001 72.6609 27.7001C71.4942 25.0001 70.9109 21.8001 70.9109 18.1001ZM109.99 18.1001C109.99 19.8668 110.156 21.4834 110.49 22.9501C110.823 24.3834 111.306 25.6334 111.94 26.7001C112.573 27.7334 113.323 28.5334 114.19 29.1001C115.056 29.6668 116.023 29.9501 117.09 29.9501C118.19 29.9501 119.173 29.6668 120.04 29.1001C120.906 28.5334 121.656 27.7334 122.29 26.7001C122.923 25.6334 123.406 24.3834 123.74 22.9501C124.073 21.4834 124.24 19.8668 124.24 18.1001C124.24 16.3334 124.073 14.7334 123.74 13.3001C123.406 11.8334 122.923 10.5834 122.29 9.5501C121.656 8.48343 120.906 7.66676 120.04 7.1001C119.173 6.53343 118.19 6.2501 117.09 6.2501C116.023 6.2501 115.056 6.53343 114.19 7.1001C113.323 7.66676 112.573 8.48343 111.94 9.5501C111.306 10.5834 110.823 11.8334 110.49 13.3001C110.156 14.7334 109.99 16.3334 109.99 18.1001ZM103.04 18.1001C103.04 14.4001 103.623 11.2001 104.79 8.50009C105.99 5.8001 107.64 3.71676 109.74 2.25009C111.873 0.750096 114.323 9.70364e-05 117.09 9.70364e-05C119.956 9.70364e-05 122.44 0.750096 124.54 2.25009C126.64 3.71676 128.273 5.8001 129.44 8.50009C130.606 11.2001 131.19 14.4001 131.19 18.1001C131.19 21.8001 130.606 25.0001 129.44 27.7001C128.273 30.4001 126.64 32.5001 124.54 34.0001C122.44 35.4668 119.956 36.2001 117.09 36.2001C114.323 36.2001 111.873 35.4668 109.74 34.0001C107.64 32.5001 105.99 30.4001 104.79 27.7001C103.623 25.0001 103.04 21.8001 103.04 18.1001ZM142.119 18.1001C142.119 19.8668 142.285 21.4834 142.619 22.9501C142.952 24.3834 143.435 25.6334 144.069 26.7001C144.702 27.7334 145.452 28.5334 146.319 29.1001C147.185 29.6668 148.152 29.9501 149.219 29.9501C150.319 29.9501 151.302 29.6668 152.169 29.1001C153.035 28.5334 153.785 27.7334 154.419 26.7001C155.052 25.6334 155.535 24.3834 155.869 22.9501C156.202 21.4834 156.369 19.8668 156.369 18.1001C156.369 16.3334 156.202 14.7334 155.869 13.3001C155.535 11.8334 155.052 10.5834 154.419 9.5501C153.785 8.48343 153.035 7.66676 152.169 7.1001C151.302 6.53343 150.319 6.2501 149.219 6.2501C148.152 6.2501 147.185 6.53343 146.319 7.1001C145.452 7.66676 144.702 8.48343 144.069 9.5501C143.435 10.5834 142.952 11.8334 142.619 13.3001C142.285 14.7334 142.119 16.3334 142.119 18.1001ZM135.169 18.1001C135.169 14.4001 135.752 11.2001 136.919 8.50009C138.119 5.8001 139.769 3.71676 141.869 2.25009C144.002 0.750096 146.452 9.70364e-05 149.219 9.70364e-05C152.085 9.70364e-05 154.569 0.750096 156.669 2.25009C158.769 3.71676 160.402 5.8001 161.569 8.50009C162.735 11.2001 163.319 14.4001 163.319 18.1001C163.319 21.8001 162.735 25.0001 161.569 27.7001C160.402 30.4001 158.769 32.5001 156.669 34.0001C154.569 35.4668 152.085 36.2001 149.219 36.2001C146.452 36.2001 144.002 35.4668 141.869 34.0001C139.769 32.5001 138.119 30.4001 136.919 27.7001C135.752 25.0001 135.169 21.8001 135.169 18.1001ZM187.788 0.600095H194.938V35.6001H187.788V0.600095ZM192.038 6.65009V0.600095H199.238C202.005 0.600095 204.388 0.950096 206.388 1.6501C208.421 2.3501 209.988 3.46676 211.088 5.0001C212.188 6.53343 212.738 8.5501 212.738 11.0501C212.738 13.5168 212.188 15.5334 211.088 17.1001C209.988 18.6334 208.421 19.7668 206.388 20.5001C204.388 21.2001 202.005 21.5501 199.238 21.5501H192.038V15.5001H199.238C200.671 15.5001 201.871 15.3501 202.838 15.0501C203.838 14.7501 204.605 14.2834 205.138 13.6501C205.705 13.0168 205.988 12.1501 205.988 11.0501C205.988 9.98343 205.705 9.13343 205.138 8.50009C204.605 7.83343 203.838 7.36676 202.838 7.1001C201.871 6.80009 200.671 6.65009 199.238 6.65009H192.038ZM194.288 31.3001V25.6501H204.738V31.3001H194.288ZM181.788 21.3001V15.6501H192.238V21.3001H181.788ZM181.788 31.3001V25.6501H192.238V31.3001H181.788Z" fill="#141024"/>
</svg>
