<svg width="72" height="51" viewBox="0 0 72 51" fill="none" xmlns="http://www.w3.org/2000/svg">
<path d="M-1.05798e-06 13.58V4.54996L21.49 -3.50475e-05V49.84H11.76V10.5L-1.05798e-06 13.58ZM41.9448 25.34C41.9448 27.8133 42.1781 30.0766 42.6448 32.13C43.1114 34.1366 43.7881 35.8866 44.6748 37.38C45.5614 38.8266 46.6114 39.9466 47.8248 40.74C49.0381 41.5333 50.3914 41.93 51.8848 41.93C53.4248 41.93 54.8014 41.5333 56.0148 40.74C57.2281 39.9466 58.2781 38.8266 59.1648 37.38C60.0514 35.8866 60.7281 34.1366 61.1948 32.13C61.6614 30.0766 61.8948 27.8133 61.8948 25.34C61.8948 22.8666 61.6614 20.6266 61.1948 18.62C60.7281 16.5666 60.0514 14.8166 59.1648 13.37C58.2781 11.8766 57.2281 10.7333 56.0148 9.93996C54.8014 9.14663 53.4248 8.74996 51.8848 8.74996C50.3914 8.74996 49.0381 9.14663 47.8248 9.93996C46.6114 10.7333 45.5614 11.8766 44.6748 13.37C43.7881 14.8166 43.1114 16.5666 42.6448 18.62C42.1781 20.6266 41.9448 22.8666 41.9448 25.34ZM32.2148 25.34C32.2148 20.16 33.0314 15.68 34.6648 11.9C36.3448 8.11996 38.6548 5.2033 41.5948 3.14996C44.5814 1.04996 48.0114 -3.50475e-05 51.8848 -3.50475e-05C55.8981 -3.50475e-05 59.3748 1.04996 62.3148 3.14996C65.2548 5.2033 67.5414 8.11996 69.1748 11.9C70.8081 15.68 71.6248 20.16 71.6248 25.34C71.6248 30.52 70.8081 35 69.1748 38.78C67.5414 42.56 65.2548 45.5 62.3148 47.6C59.3748 49.6533 55.8981 50.68 51.8848 50.68C48.0114 50.68 44.5814 49.6533 41.5948 47.6C38.6548 45.5 36.3448 42.56 34.6648 38.78C33.0314 35 32.2148 30.52 32.2148 25.34Z" fill="#D52027"/>
</svg>
