<svg width="117" height="51" viewBox="0 0 117 51" fill="none" xmlns="http://www.w3.org/2000/svg">
<path d="M2.94596e-05 13.58L11.76 10.5V49.84H21.49V-3.50475e-05L2.94596e-05 4.54996V13.58ZM41.9448 25.34C41.9448 22.8666 42.1781 20.6266 42.6448 18.62C43.1115 16.5666 43.7881 14.8166 44.6748 13.37C45.5615 11.8766 46.6115 10.7333 47.8248 9.93996C49.0381 9.14663 50.3915 8.74996 51.8848 8.74996C53.4248 8.74996 54.8015 9.14663 56.0148 9.93996C57.2281 10.7333 58.2781 11.8766 59.1648 13.37C60.0515 14.8166 60.7281 16.5666 61.1948 18.62C61.6615 20.6266 61.8948 22.8666 61.8948 25.34C61.8948 27.8133 61.6615 30.0766 61.1948 32.13C60.7281 34.1366 60.0515 35.8866 59.1648 37.38C58.2781 38.8266 57.2281 39.9466 56.0148 40.74C54.8015 41.5333 53.4248 41.93 51.8848 41.93C50.3915 41.93 49.0381 41.5333 47.8248 40.74C46.6115 39.9466 45.5615 38.8266 44.6748 37.38C43.7881 35.8866 43.1115 34.1366 42.6448 32.13C42.1781 30.0766 41.9448 27.8133 41.9448 25.34ZM32.2148 25.34C32.2148 30.52 33.0315 35 34.6648 38.78C36.3448 42.56 38.6548 45.5 41.5948 47.6C44.5815 49.6533 48.0115 50.68 51.8848 50.68C55.8981 50.68 59.3748 49.6533 62.3148 47.6C65.2548 45.5 67.5415 42.56 69.1748 38.78C70.8081 35 71.6248 30.52 71.6248 25.34C71.6248 20.16 70.8081 15.68 69.1748 11.9C67.5415 8.11996 65.2548 5.2033 62.3148 3.14996C59.3748 1.04996 55.8981 -3.50475e-05 51.8848 -3.50475e-05C48.0115 -3.50475e-05 44.5815 1.04996 41.5948 3.14996C38.6548 5.2033 36.3448 8.11996 34.6648 11.9C33.0315 15.68 32.2148 20.16 32.2148 25.34ZM86.9253 25.34C86.9253 22.8666 87.1586 20.6266 87.6253 18.62C88.0919 16.5666 88.7686 14.8166 89.6553 13.37C90.5419 11.8766 91.5919 10.7333 92.8053 9.93996C94.0186 9.14663 95.3719 8.74996 96.8653 8.74996C98.4053 8.74996 99.7819 9.14663 100.995 9.93996C102.209 10.7333 103.259 11.8766 104.145 13.37C105.032 14.8166 105.709 16.5666 106.175 18.62C106.642 20.6266 106.875 22.8666 106.875 25.34C106.875 27.8133 106.642 30.0766 106.175 32.13C105.709 34.1366 105.032 35.8866 104.145 37.38C103.259 38.8266 102.209 39.9466 100.995 40.74C99.7819 41.5333 98.4053 41.93 96.8653 41.93C95.3719 41.93 94.0186 41.5333 92.8053 40.74C91.5919 39.9466 90.5419 38.8266 89.6553 37.38C88.7686 35.8866 88.0919 34.1366 87.6253 32.13C87.1586 30.0766 86.9253 27.8133 86.9253 25.34ZM77.1953 25.34C77.1953 30.52 78.0119 35 79.6453 38.78C81.3253 42.56 83.6353 45.5 86.5753 47.6C89.5619 49.6533 92.9919 50.68 96.8653 50.68C100.879 50.68 104.355 49.6533 107.295 47.6C110.235 45.5 112.522 42.56 114.155 38.78C115.789 35 116.605 30.52 116.605 25.34C116.605 20.16 115.789 15.68 114.155 11.9C112.522 8.11996 110.235 5.2033 107.295 3.14996C104.355 1.04996 100.879 -3.50475e-05 96.8653 -3.50475e-05C92.9919 -3.50475e-05 89.5619 1.04996 86.5753 3.14996C83.6353 5.2033 81.3253 8.11996 79.6453 11.9C78.0119 15.68 77.1953 20.16 77.1953 25.34Z" fill="#D52027"/>
</svg>
