<svg width="212" height="37" viewBox="0 0 212 37" fill="none" xmlns="http://www.w3.org/2000/svg">
<path d="M1.23233e-05 9.7001V3.2501L15.35 9.70364e-05V35.6001H8.40001V7.5001L1.23233e-05 9.7001ZM50.0106 24.3001C50.0106 26.3668 49.6272 28.1501 48.8606 29.6501C48.0939 31.1501 47.0606 32.3834 45.7606 33.3501C44.4606 34.3168 43.0106 35.0334 41.4106 35.5001C39.8106 35.9668 38.1606 36.2001 36.4606 36.2001C34.3272 36.2001 32.4106 35.9501 30.7106 35.4501C29.0439 34.9501 27.5772 34.3001 26.3106 33.5001C25.0439 32.6668 23.9272 31.7668 22.9606 30.8001L26.3106 25.2501C27.1439 26.0834 28.0439 26.8334 29.0106 27.5001C30.0106 28.1668 31.0439 28.7001 32.1106 29.1001C33.1772 29.4668 34.1939 29.6501 35.1606 29.6501C36.6606 29.6501 37.9272 29.4168 38.9606 28.9501C40.0272 28.4834 40.8439 27.8168 41.4106 26.9501C41.9772 26.0501 42.2606 24.9501 42.2606 23.6501C42.2606 22.3834 41.9272 21.3168 41.2606 20.4501C40.6272 19.5834 39.7606 18.9334 38.6606 18.5001C37.5939 18.0334 36.4272 17.8001 35.1606 17.8001C34.2272 17.8001 33.2439 17.8834 32.2106 18.0501C31.1772 18.1834 30.1106 18.4334 29.0106 18.8001C27.9439 19.1334 26.8106 19.6334 25.6106 20.3001L30.4106 0.600095H49.4606V6.8001H35.7106L33.6106 14.0001C34.4772 13.5334 35.3939 13.2168 36.3606 13.0501C37.3606 12.8501 38.3772 12.7501 39.4106 12.7501C41.3106 12.7501 43.0606 13.2168 44.6606 14.1501C46.2606 15.0834 47.5439 16.4168 48.5106 18.1501C49.5106 19.8501 50.0106 21.9001 50.0106 24.3001ZM55.8164 32.6501C55.8164 31.5168 56.1998 30.5668 56.9664 29.8001C57.7664 29.0001 58.7498 28.6001 59.9164 28.6001C61.1164 28.6001 62.0998 29.0001 62.8664 29.8001C63.6331 30.5668 64.0164 31.5168 64.0164 32.6501C64.0164 33.7168 63.6331 34.6501 62.8664 35.4501C62.0998 36.2501 61.1164 36.6501 59.9164 36.6501C58.7498 36.6501 57.7664 36.2501 56.9664 35.4501C56.1998 34.6501 55.8164 33.7168 55.8164 32.6501ZM76.7379 18.1001C76.7379 19.8668 76.9046 21.4834 77.2379 22.9501C77.5712 24.3834 78.0546 25.6334 78.6879 26.7001C79.3212 27.7334 80.0712 28.5334 80.9379 29.1001C81.8046 29.6668 82.7712 29.9501 83.8379 29.9501C84.9379 29.9501 85.9212 29.6668 86.7879 29.1001C87.6546 28.5334 88.4046 27.7334 89.0379 26.7001C89.6712 25.6334 90.1546 24.3834 90.4879 22.9501C90.8212 21.4834 90.9879 19.8668 90.9879 18.1001C90.9879 16.3334 90.8212 14.7334 90.4879 13.3001C90.1546 11.8334 89.6712 10.5834 89.0379 9.5501C88.4046 8.48343 87.6546 7.66676 86.7879 7.1001C85.9212 6.53343 84.9379 6.2501 83.8379 6.2501C82.7712 6.2501 81.8046 6.53343 80.9379 7.1001C80.0712 7.66676 79.3212 8.48343 78.6879 9.5501C78.0546 10.5834 77.5712 11.8334 77.2379 13.3001C76.9046 14.7334 76.7379 16.3334 76.7379 18.1001ZM69.7879 18.1001C69.7879 14.4001 70.3712 11.2001 71.5379 8.50009C72.7379 5.8001 74.3879 3.71676 76.4879 2.25009C78.6212 0.750096 81.0712 9.70364e-05 83.8379 9.70364e-05C86.7046 9.70364e-05 89.1879 0.750096 91.2879 2.25009C93.3879 3.71676 95.0212 5.8001 96.1879 8.50009C97.3546 11.2001 97.9379 14.4001 97.9379 18.1001C97.9379 21.8001 97.3546 25.0001 96.1879 27.7001C95.0212 30.4001 93.3879 32.5001 91.2879 34.0001C89.1879 35.4668 86.7046 36.2001 83.8379 36.2001C81.0712 36.2001 78.6212 35.4668 76.4879 34.0001C74.3879 32.5001 72.7379 30.4001 71.5379 27.7001C70.3712 25.0001 69.7879 21.8001 69.7879 18.1001ZM108.867 18.1001C108.867 19.8668 109.033 21.4834 109.367 22.9501C109.7 24.3834 110.183 25.6334 110.817 26.7001C111.45 27.7334 112.2 28.5334 113.067 29.1001C113.933 29.6668 114.9 29.9501 115.967 29.9501C117.067 29.9501 118.05 29.6668 118.917 29.1001C119.783 28.5334 120.533 27.7334 121.167 26.7001C121.8 25.6334 122.283 24.3834 122.617 22.9501C122.95 21.4834 123.117 19.8668 123.117 18.1001C123.117 16.3334 122.95 14.7334 122.617 13.3001C122.283 11.8334 121.8 10.5834 121.167 9.5501C120.533 8.48343 119.783 7.66676 118.917 7.1001C118.05 6.53343 117.067 6.2501 115.967 6.2501C114.9 6.2501 113.933 6.53343 113.067 7.1001C112.2 7.66676 111.45 8.48343 110.817 9.5501C110.183 10.5834 109.7 11.8334 109.367 13.3001C109.033 14.7334 108.867 16.3334 108.867 18.1001ZM101.917 18.1001C101.917 14.4001 102.5 11.2001 103.667 8.50009C104.867 5.8001 106.517 3.71676 108.617 2.25009C110.75 0.750096 113.2 9.70364e-05 115.967 9.70364e-05C118.833 9.70364e-05 121.317 0.750096 123.417 2.25009C125.517 3.71676 127.15 5.8001 128.317 8.50009C129.483 11.2001 130.067 14.4001 130.067 18.1001C130.067 21.8001 129.483 25.0001 128.317 27.7001C127.15 30.4001 125.517 32.5001 123.417 34.0001C121.317 35.4668 118.833 36.2001 115.967 36.2001C113.2 36.2001 110.75 35.4668 108.617 34.0001C106.517 32.5001 104.867 30.4001 103.667 27.7001C102.5 25.0001 101.917 21.8001 101.917 18.1001ZM140.996 18.1001C140.996 19.8668 141.162 21.4834 141.496 22.9501C141.829 24.3834 142.312 25.6334 142.946 26.7001C143.579 27.7334 144.329 28.5334 145.196 29.1001C146.062 29.6668 147.029 29.9501 148.096 29.9501C149.196 29.9501 150.179 29.6668 151.046 29.1001C151.912 28.5334 152.662 27.7334 153.296 26.7001C153.929 25.6334 154.412 24.3834 154.746 22.9501C155.079 21.4834 155.246 19.8668 155.246 18.1001C155.246 16.3334 155.079 14.7334 154.746 13.3001C154.412 11.8334 153.929 10.5834 153.296 9.5501C152.662 8.48343 151.912 7.66676 151.046 7.1001C150.179 6.53343 149.196 6.2501 148.096 6.2501C147.029 6.2501 146.062 6.53343 145.196 7.1001C144.329 7.66676 143.579 8.48343 142.946 9.5501C142.312 10.5834 141.829 11.8334 141.496 13.3001C141.162 14.7334 140.996 16.3334 140.996 18.1001ZM134.046 18.1001C134.046 14.4001 134.629 11.2001 135.796 8.50009C136.996 5.8001 138.646 3.71676 140.746 2.25009C142.879 0.750096 145.329 9.70364e-05 148.096 9.70364e-05C150.962 9.70364e-05 153.446 0.750096 155.546 2.25009C157.646 3.71676 159.279 5.8001 160.446 8.50009C161.612 11.2001 162.196 14.4001 162.196 18.1001C162.196 21.8001 161.612 25.0001 160.446 27.7001C159.279 30.4001 157.646 32.5001 155.546 34.0001C153.446 35.4668 150.962 36.2001 148.096 36.2001C145.329 36.2001 142.879 35.4668 140.746 34.0001C138.646 32.5001 136.996 30.4001 135.796 27.7001C134.629 25.0001 134.046 21.8001 134.046 18.1001ZM186.665 0.600095H193.815V35.6001H186.665V0.600095ZM190.915 6.65009V0.600095H198.115C200.882 0.600095 203.265 0.950096 205.265 1.6501C207.298 2.3501 208.865 3.46676 209.965 5.0001C211.065 6.53343 211.615 8.5501 211.615 11.0501C211.615 13.5168 211.065 15.5334 209.965 17.1001C208.865 18.6334 207.298 19.7668 205.265 20.5001C203.265 21.2001 200.882 21.5501 198.115 21.5501H190.915V15.5001H198.115C199.548 15.5001 200.748 15.3501 201.715 15.0501C202.715 14.7501 203.482 14.2834 204.015 13.6501C204.582 13.0168 204.865 12.1501 204.865 11.0501C204.865 9.98343 204.582 9.13343 204.015 8.50009C203.482 7.83343 202.715 7.36676 201.715 7.1001C200.748 6.80009 199.548 6.65009 198.115 6.65009H190.915ZM193.165 31.3001V25.6501H203.615V31.3001H193.165ZM180.665 21.3001V15.6501H191.115V21.3001H180.665ZM180.665 31.3001V25.6501H191.115V31.3001H180.665Z" fill="#141024"/>
</svg>
