<svg width="223" height="37" viewBox="0 0 223 37" fill="none" xmlns="http://www.w3.org/2000/svg">
<path d="M7.07805e-08 35.6499L15.9 19.0499C16.8 18.0832 17.5667 17.1832 18.2 16.3499C18.8333 15.5166 19.3167 14.6832 19.65 13.8499C19.9833 13.0166 20.15 12.1499 20.15 11.2499C20.15 10.6166 20.0333 9.9999 19.8 9.3999C19.5667 8.7999 19.2167 8.26657 18.75 7.7999C18.2833 7.33323 17.7167 6.96657 17.05 6.6999C16.3833 6.3999 15.6167 6.2499 14.75 6.2499C13.5167 6.2499 12.45 6.5499 11.55 7.1499C10.6833 7.71657 10 8.53323 9.5 9.5999C9.03333 10.6666 8.8 11.8999 8.8 13.2999H1.8C1.8 10.7999 2.3 8.5499 3.3 6.5499C4.3 4.5499 5.76667 2.96657 7.7 1.7999C9.66667 0.5999 12.0667 -0.000100613 14.9 -0.000100613C17 -0.000100613 18.8333 0.333233 20.4 0.999901C22 1.63323 23.3167 2.48323 24.35 3.5499C25.4167 4.58324 26.2 5.73324 26.7 6.9999C27.2333 8.26657 27.5 9.53323 27.5 10.7999C27.5 12.6666 27.05 14.4166 26.15 16.0499C25.25 17.6832 24.0667 19.1666 22.6 20.4999L13.5 29.0999H28.15V35.6499H7.07805e-08ZM39.3953 18.1499C39.3953 19.9166 39.562 21.5332 39.8953 22.9999C40.2286 24.4332 40.712 25.6832 41.3453 26.7499C41.9786 27.7832 42.7286 28.5832 43.5953 29.1499C44.462 29.7166 45.4286 29.9999 46.4953 29.9999C47.5953 29.9999 48.5786 29.7166 49.4453 29.1499C50.312 28.5832 51.062 27.7832 51.6953 26.7499C52.3286 25.6832 52.812 24.4332 53.1453 22.9999C53.4786 21.5332 53.6453 19.9166 53.6453 18.1499C53.6453 16.3832 53.4786 14.7832 53.1453 13.3499C52.812 11.8832 52.3286 10.6332 51.6953 9.5999C51.062 8.53323 50.312 7.71657 49.4453 7.1499C48.5786 6.58323 47.5953 6.2999 46.4953 6.2999C45.4286 6.2999 44.462 6.58323 43.5953 7.1499C42.7286 7.71657 41.9786 8.53323 41.3453 9.5999C40.712 10.6332 40.2286 11.8832 39.8953 13.3499C39.562 14.7832 39.3953 16.3832 39.3953 18.1499ZM32.4453 18.1499C32.4453 14.4499 33.0286 11.2499 34.1953 8.5499C35.3953 5.8499 37.0453 3.76657 39.1453 2.2999C41.2786 0.799901 43.7286 0.0499017 46.4953 0.0499017C49.362 0.0499017 51.8453 0.799901 53.9453 2.2999C56.0453 3.76657 57.6786 5.8499 58.8453 8.5499C60.012 11.2499 60.5953 14.4499 60.5953 18.1499C60.5953 21.8499 60.012 25.0499 58.8453 27.7499C57.6786 30.4499 56.0453 32.5499 53.9453 34.0499C51.8453 35.5166 49.362 36.2499 46.4953 36.2499C43.7286 36.2499 41.2786 35.5166 39.1453 34.0499C37.0453 32.5499 35.3953 30.4499 34.1953 27.7499C33.0286 25.0499 32.4453 21.8499 32.4453 18.1499ZM66.3742 32.6999C66.3742 31.5666 66.7576 30.6166 67.5242 29.8499C68.3242 29.0499 69.3076 28.6499 70.4742 28.6499C71.6742 28.6499 72.6576 29.0499 73.4242 29.8499C74.1909 30.6166 74.5742 31.5666 74.5742 32.6999C74.5742 33.7666 74.1909 34.6999 73.4242 35.4999C72.6576 36.2999 71.6742 36.6999 70.4742 36.6999C69.3076 36.6999 68.3242 36.2999 67.5242 35.4999C66.7576 34.6999 66.3742 33.7666 66.3742 32.6999ZM87.2957 18.1499C87.2957 19.9166 87.4624 21.5332 87.7957 22.9999C88.129 24.4332 88.6124 25.6832 89.2457 26.7499C89.879 27.7832 90.629 28.5832 91.4957 29.1499C92.3624 29.7166 93.329 29.9999 94.3957 29.9999C95.4957 29.9999 96.479 29.7166 97.3457 29.1499C98.2124 28.5832 98.9624 27.7832 99.5957 26.7499C100.229 25.6832 100.712 24.4332 101.046 22.9999C101.379 21.5332 101.546 19.9166 101.546 18.1499C101.546 16.3832 101.379 14.7832 101.046 13.3499C100.712 11.8832 100.229 10.6332 99.5957 9.5999C98.9624 8.53323 98.2124 7.71657 97.3457 7.1499C96.479 6.58323 95.4957 6.2999 94.3957 6.2999C93.329 6.2999 92.3624 6.58323 91.4957 7.1499C90.629 7.71657 89.879 8.53323 89.2457 9.5999C88.6124 10.6332 88.129 11.8832 87.7957 13.3499C87.4624 14.7832 87.2957 16.3832 87.2957 18.1499ZM80.3457 18.1499C80.3457 14.4499 80.929 11.2499 82.0957 8.5499C83.2957 5.8499 84.9457 3.76657 87.0457 2.2999C89.179 0.799901 91.629 0.0499017 94.3957 0.0499017C97.2624 0.0499017 99.7457 0.799901 101.846 2.2999C103.946 3.76657 105.579 5.8499 106.746 8.5499C107.912 11.2499 108.496 14.4499 108.496 18.1499C108.496 21.8499 107.912 25.0499 106.746 27.7499C105.579 30.4499 103.946 32.5499 101.846 34.0499C99.7457 35.5166 97.2624 36.2499 94.3957 36.2499C91.629 36.2499 89.179 35.5166 87.0457 34.0499C84.9457 32.5499 83.2957 30.4499 82.0957 27.7499C80.929 25.0499 80.3457 21.8499 80.3457 18.1499ZM119.425 18.1499C119.425 19.9166 119.591 21.5332 119.925 22.9999C120.258 24.4332 120.741 25.6832 121.375 26.7499C122.008 27.7832 122.758 28.5832 123.625 29.1499C124.491 29.7166 125.458 29.9999 126.525 29.9999C127.625 29.9999 128.608 29.7166 129.475 29.1499C130.341 28.5832 131.091 27.7832 131.725 26.7499C132.358 25.6832 132.841 24.4332 133.175 22.9999C133.508 21.5332 133.675 19.9166 133.675 18.1499C133.675 16.3832 133.508 14.7832 133.175 13.3499C132.841 11.8832 132.358 10.6332 131.725 9.5999C131.091 8.53323 130.341 7.71657 129.475 7.1499C128.608 6.58323 127.625 6.2999 126.525 6.2999C125.458 6.2999 124.491 6.58323 123.625 7.1499C122.758 7.71657 122.008 8.53323 121.375 9.5999C120.741 10.6332 120.258 11.8832 119.925 13.3499C119.591 14.7832 119.425 16.3832 119.425 18.1499ZM112.475 18.1499C112.475 14.4499 113.058 11.2499 114.225 8.5499C115.425 5.8499 117.075 3.76657 119.175 2.2999C121.308 0.799901 123.758 0.0499017 126.525 0.0499017C129.391 0.0499017 131.875 0.799901 133.975 2.2999C136.075 3.76657 137.708 5.8499 138.875 8.5499C140.041 11.2499 140.625 14.4499 140.625 18.1499C140.625 21.8499 140.041 25.0499 138.875 27.7499C137.708 30.4499 136.075 32.5499 133.975 34.0499C131.875 35.5166 129.391 36.2499 126.525 36.2499C123.758 36.2499 121.308 35.5166 119.175 34.0499C117.075 32.5499 115.425 30.4499 114.225 27.7499C113.058 25.0499 112.475 21.8499 112.475 18.1499ZM151.554 18.1499C151.554 19.9166 151.72 21.5332 152.054 22.9999C152.387 24.4332 152.87 25.6832 153.504 26.7499C154.137 27.7832 154.887 28.5832 155.754 29.1499C156.62 29.7166 157.587 29.9999 158.654 29.9999C159.754 29.9999 160.737 29.7166 161.604 29.1499C162.47 28.5832 163.22 27.7832 163.854 26.7499C164.487 25.6832 164.97 24.4332 165.304 22.9999C165.637 21.5332 165.804 19.9166 165.804 18.1499C165.804 16.3832 165.637 14.7832 165.304 13.3499C164.97 11.8832 164.487 10.6332 163.854 9.5999C163.22 8.53323 162.47 7.71657 161.604 7.1499C160.737 6.58323 159.754 6.2999 158.654 6.2999C157.587 6.2999 156.62 6.58323 155.754 7.1499C154.887 7.71657 154.137 8.53323 153.504 9.5999C152.87 10.6332 152.387 11.8832 152.054 13.3499C151.72 14.7832 151.554 16.3832 151.554 18.1499ZM144.604 18.1499C144.604 14.4499 145.187 11.2499 146.354 8.5499C147.554 5.8499 149.204 3.76657 151.304 2.2999C153.437 0.799901 155.887 0.0499017 158.654 0.0499017C161.52 0.0499017 164.004 0.799901 166.104 2.2999C168.204 3.76657 169.837 5.8499 171.004 8.5499C172.17 11.2499 172.754 14.4499 172.754 18.1499C172.754 21.8499 172.17 25.0499 171.004 27.7499C169.837 30.4499 168.204 32.5499 166.104 34.0499C164.004 35.5166 161.52 36.2499 158.654 36.2499C155.887 36.2499 153.437 35.5166 151.304 34.0499C149.204 32.5499 147.554 30.4499 146.354 27.7499C145.187 25.0499 144.604 21.8499 144.604 18.1499ZM197.223 0.6499H204.373V35.6499H197.223V0.6499ZM201.473 6.6999V0.6499H208.673C211.439 0.6499 213.823 0.9999 215.823 1.6999C217.856 2.3999 219.423 3.51657 220.523 5.0499C221.623 6.58323 222.173 8.5999 222.173 11.0999C222.173 13.5666 221.623 15.5832 220.523 17.1499C219.423 18.6832 217.856 19.8166 215.823 20.5499C213.823 21.2499 211.439 21.5999 208.673 21.5999H201.473V15.5499H208.673C210.106 15.5499 211.306 15.3999 212.273 15.0999C213.273 14.7999 214.039 14.3332 214.573 13.6999C215.139 13.0666 215.423 12.1999 215.423 11.0999C215.423 10.0332 215.139 9.18323 214.573 8.5499C214.039 7.88323 213.273 7.41657 212.273 7.1499C211.306 6.8499 210.106 6.6999 208.673 6.6999H201.473ZM203.723 31.3499V25.6999H214.173V31.3499H203.723ZM191.223 21.3499V15.6999H201.673V21.3499H191.223ZM191.223 31.3499V25.6999H201.673V31.3499H191.223Z" fill="white"/>
</svg>
