<svg width="85" height="51" viewBox="0 0 85 51" fill="none" xmlns="http://www.w3.org/2000/svg">
<path d="M-2.4315e-05 49.91H39.41V40.74H18.9L31.64 28.7C33.6933 26.8334 35.35 24.7567 36.61 22.47C37.87 20.1834 38.5 17.7334 38.5 15.12C38.5 13.3467 38.1266 11.5734 37.38 9.80003C36.68 8.0267 35.5833 6.4167 34.09 4.97003C32.6433 3.4767 30.8 2.2867 28.56 1.40003C26.3666 0.466698 23.8 3.00407e-05 20.86 3.00407e-05C16.8933 3.00407e-05 13.5333 0.84003 10.78 2.52003C8.07331 4.15337 6.01998 6.37003 4.61998 9.17003C3.21998 11.97 2.51998 15.12 2.51998 18.62H12.32C12.32 16.66 12.6466 14.9334 13.3 13.44C14 11.9467 14.9566 10.8034 16.17 10.01C17.43 9.17003 18.9233 8.75003 20.65 8.75003C21.8633 8.75003 22.9366 8.96003 23.87 9.38003C24.8033 9.75336 25.5966 10.2667 26.25 10.92C26.9033 11.5734 27.3933 12.32 27.72 13.16C28.0466 14 28.21 14.8634 28.21 15.75C28.21 17.01 27.9766 18.2234 27.51 19.39C27.0433 20.5567 26.3666 21.7234 25.48 22.89C24.5933 24.0567 23.52 25.3167 22.26 26.67L-2.4315e-05 49.91ZM55.1534 25.41C55.1534 22.9367 55.3867 20.6967 55.8534 18.69C56.3201 16.6367 56.9967 14.8867 57.8834 13.44C58.7701 11.9467 59.8201 10.8034 61.0334 10.01C62.2467 9.2167 63.6001 8.82003 65.0934 8.82003C66.6334 8.82003 68.0101 9.2167 69.2234 10.01C70.4367 10.8034 71.4867 11.9467 72.3734 13.44C73.2601 14.8867 73.9367 16.6367 74.4034 18.69C74.8701 20.6967 75.1034 22.9367 75.1034 25.41C75.1034 27.8834 74.8701 30.1467 74.4034 32.2C73.9367 34.2067 73.2601 35.9567 72.3734 37.45C71.4867 38.8967 70.4367 40.0167 69.2234 40.81C68.0101 41.6034 66.6334 42 65.0934 42C63.6001 42 62.2467 41.6034 61.0334 40.81C59.8201 40.0167 58.7701 38.8967 57.8834 37.45C56.9967 35.9567 56.3201 34.2067 55.8534 32.2C55.3867 30.1467 55.1534 27.8834 55.1534 25.41ZM45.4234 25.41C45.4234 30.59 46.2401 35.07 47.8734 38.85C49.5534 42.63 51.8634 45.57 54.8034 47.67C57.7901 49.7234 61.2201 50.75 65.0934 50.75C69.1067 50.75 72.5834 49.7234 75.5234 47.67C78.4634 45.57 80.7501 42.63 82.3834 38.85C84.0167 35.07 84.8334 30.59 84.8334 25.41C84.8334 20.23 84.0167 15.75 82.3834 11.97C80.7501 8.19003 78.4634 5.27337 75.5234 3.22003C72.5834 1.12003 69.1067 0.0700333 65.0934 0.0700333C61.2201 0.0700333 57.7901 1.12003 54.8034 3.22003C51.8634 5.27337 49.5534 8.19003 47.8734 11.97C46.2401 15.75 45.4234 20.23 45.4234 25.41Z" fill="#D52027"/>
</svg>
