<svg width="224" height="23" viewBox="0 0 224 23" fill="none" xmlns="http://www.w3.org/2000/svg">
<path d="M5.25 11.97H10.5L17.07 21.48H11.13L5.25 11.97ZM-1.19209e-06 0.479998H5.07V21.48H-1.19209e-06V0.479998ZM3.18 4.77V0.479998H7.65C9.45 0.479998 10.95 0.769999 12.15 1.35C13.35 1.93 14.26 2.74 14.88 3.78C15.5 4.8 15.81 5.99 15.81 7.35C15.81 8.69 15.5 9.88 14.88 10.92C14.26 11.94 13.35 12.74 12.15 13.32C10.95 13.9 9.45 14.19 7.65 14.19H3.18V10.26H7.29C7.97 10.26 8.55 10.16 9.03 9.96C9.53 9.74 9.91 9.43 10.17 9.03C10.43 8.61 10.56 8.11 10.56 7.53C10.56 6.95 10.43 6.46 10.17 6.06C9.91 5.64 9.53 5.32 9.03 5.1C8.55 4.88 7.97 4.77 7.29 4.77H3.18ZM23.5938 10.98C23.5938 12.22 23.8338 13.32 24.3138 14.28C24.8138 15.22 25.5038 15.96 26.3838 16.5C27.2838 17.04 28.3338 17.31 29.5338 17.31C30.7138 17.31 31.7438 17.04 32.6238 16.5C33.5238 15.96 34.2138 15.22 34.6938 14.28C35.1938 13.32 35.4438 12.22 35.4438 10.98C35.4438 9.74 35.2038 8.65 34.7238 7.71C34.2438 6.75 33.5638 6 32.6838 5.46C31.8038 4.92 30.7538 4.65 29.5338 4.65C28.3338 4.65 27.2838 4.92 26.3838 5.46C25.5038 6 24.8138 6.75 24.3138 7.71C23.8338 8.65 23.5938 9.74 23.5938 10.98ZM18.2238 10.98C18.2238 9.36 18.5038 7.88 19.0638 6.54C19.6438 5.2 20.4438 4.04 21.4638 3.06C22.4838 2.08 23.6838 1.33 25.0638 0.809999C26.4438 0.269999 27.9338 -1.07288e-06 29.5338 -1.07288e-06C31.1538 -1.07288e-06 32.6438 0.269999 34.0038 0.809999C35.3838 1.33 36.5838 2.08 37.6038 3.06C38.6238 4.04 39.4138 5.2 39.9738 6.54C40.5338 7.88 40.8138 9.36 40.8138 10.98C40.8138 12.6 40.5338 14.09 39.9738 15.45C39.4338 16.81 38.6538 17.99 37.6338 18.99C36.6338 19.99 35.4438 20.77 34.0638 21.33C32.6838 21.87 31.1738 22.14 29.5338 22.14C27.8738 22.14 26.3538 21.87 24.9738 21.33C23.5938 20.77 22.3938 19.99 21.3738 18.99C20.3738 17.99 19.5938 16.81 19.0338 15.45C18.4938 14.09 18.2238 12.6 18.2238 10.98ZM47.8425 11.04V8.82H51.2325C51.8125 8.82 52.3025 8.73 52.7025 8.55C53.1225 8.37 53.4425 8.12 53.6625 7.8C53.8825 7.46 53.9925 7.05 53.9925 6.57C53.9925 5.85 53.7525 5.31 53.2725 4.95C52.7925 4.59 52.1125 4.41 51.2325 4.41H49.1325V17.55H51.7125C52.3725 17.55 52.9625 17.47 53.4825 17.31C54.0025 17.13 54.4125 16.85 54.7125 16.47C55.0325 16.07 55.1925 15.53 55.1925 14.85C55.1925 14.41 55.1025 14.03 54.9225 13.71C54.7425 13.39 54.4925 13.13 54.1725 12.93C53.8525 12.73 53.4825 12.59 53.0625 12.51C52.6625 12.41 52.2125 12.36 51.7125 12.36H47.8425V9.6H52.2825C53.3025 9.6 54.2925 9.71 55.2525 9.93C56.2125 10.15 57.0825 10.51 57.8625 11.01C58.6425 11.49 59.2625 12.11 59.7225 12.87C60.2025 13.61 60.4425 14.51 60.4425 15.57C60.4425 16.97 60.1025 18.1 59.4225 18.96C58.7625 19.82 57.8225 20.46 56.6025 20.88C55.3825 21.28 53.9425 21.48 52.2825 21.48H44.0625V0.479998H51.7725C53.2325 0.479998 54.5125 0.679999 55.6125 1.08C56.7325 1.46 57.6125 2.05 58.2525 2.85C58.9125 3.63 59.2425 4.62 59.2425 5.82C59.2425 6.92 58.9125 7.86 58.2525 8.64C57.6125 9.42 56.7325 10.02 55.6125 10.44C54.5125 10.84 53.2325 11.04 51.7725 11.04H47.8425ZM68.1544 10.98C68.1544 12.22 68.3944 13.32 68.8744 14.28C69.3744 15.22 70.0644 15.96 70.9444 16.5C71.8444 17.04 72.8944 17.31 74.0944 17.31C75.2744 17.31 76.3044 17.04 77.1844 16.5C78.0844 15.96 78.7744 15.22 79.2544 14.28C79.7544 13.32 80.0044 12.22 80.0044 10.98C80.0044 9.74 79.7644 8.65 79.2844 7.71C78.8044 6.75 78.1244 6 77.2444 5.46C76.3644 4.92 75.3144 4.65 74.0944 4.65C72.8944 4.65 71.8444 4.92 70.9444 5.46C70.0644 6 69.3744 6.75 68.8744 7.71C68.3944 8.65 68.1544 9.74 68.1544 10.98ZM62.7844 10.98C62.7844 9.36 63.0644 7.88 63.6244 6.54C64.2044 5.2 65.0044 4.04 66.0244 3.06C67.0444 2.08 68.2444 1.33 69.6244 0.809999C71.0044 0.269999 72.4944 -1.07288e-06 74.0944 -1.07288e-06C75.7144 -1.07288e-06 77.2044 0.269999 78.5644 0.809999C79.9444 1.33 81.1444 2.08 82.1644 3.06C83.1844 4.04 83.9744 5.2 84.5344 6.54C85.0944 7.88 85.3744 9.36 85.3744 10.98C85.3744 12.6 85.0944 14.09 84.5344 15.45C83.9944 16.81 83.2144 17.99 82.1944 18.99C81.1944 19.99 80.0044 20.77 78.6244 21.33C77.2444 21.87 75.7344 22.14 74.0944 22.14C72.4344 22.14 70.9144 21.87 69.5344 21.33C68.1544 20.77 66.9544 19.99 65.9344 18.99C64.9344 17.99 64.1544 16.81 63.5944 15.45C63.0544 14.09 62.7844 12.6 62.7844 10.98ZM87.5048 19.44C87.5048 18.68 87.7748 18.03 88.3148 17.49C88.8548 16.95 89.5248 16.68 90.3248 16.68C91.1648 16.68 91.8448 16.95 92.3648 17.49C92.8848 18.03 93.1448 18.68 93.1448 19.44C93.1448 20.2 92.8848 20.85 92.3648 21.39C91.8448 21.93 91.1648 22.2 90.3248 22.2C89.5248 22.2 88.8548 21.93 88.3148 21.39C87.7748 20.85 87.5048 20.2 87.5048 19.44ZM99.6928 14.1C100.113 14.86 100.583 15.52 101.103 16.08C101.643 16.64 102.223 17.07 102.843 17.37C103.483 17.67 104.153 17.82 104.853 17.82C105.593 17.82 106.203 17.64 106.683 17.28C107.163 16.9 107.403 16.39 107.403 15.75C107.403 15.21 107.263 14.78 106.983 14.46C106.703 14.12 106.253 13.8 105.633 13.5C105.013 13.2 104.193 12.86 103.173 12.48C102.673 12.3 102.093 12.05 101.433 11.73C100.793 11.41 100.183 11 99.6028 10.5C99.0228 9.98 98.5428 9.36 98.1628 8.64C97.7828 7.9 97.5928 7.01 97.5928 5.97C97.5928 4.73 97.9128 3.66 98.5528 2.76C99.2128 1.86 100.093 1.18 101.193 0.719999C102.313 0.239999 103.553 -1.07288e-06 104.913 -1.07288e-06C106.313 -1.07288e-06 107.523 0.229999 108.543 0.689999C109.583 1.15 110.443 1.73 111.123 2.43C111.803 3.13 112.323 3.84 112.683 4.56L108.813 6.72C108.513 6.22 108.163 5.79 107.763 5.43C107.383 5.05 106.953 4.76 106.473 4.56C106.013 4.34 105.513 4.23 104.973 4.23C104.253 4.23 103.703 4.39 103.323 4.71C102.943 5.01 102.753 5.39 102.753 5.85C102.753 6.33 102.933 6.75 103.293 7.11C103.673 7.47 104.203 7.8 104.883 8.1C105.583 8.4 106.423 8.72 107.403 9.06C108.143 9.34 108.833 9.67 109.473 10.05C110.113 10.41 110.673 10.85 111.153 11.37C111.653 11.89 112.043 12.49 112.323 13.17C112.603 13.85 112.743 14.63 112.743 15.51C112.743 16.57 112.523 17.52 112.083 18.36C111.663 19.18 111.083 19.87 110.343 20.43C109.623 20.99 108.793 21.41 107.853 21.69C106.933 21.99 105.983 22.14 105.003 22.14C103.643 22.14 102.373 21.9 101.193 21.42C100.033 20.92 99.0228 20.25 98.1628 19.41C97.3028 18.57 96.6328 17.65 96.1528 16.65L99.6928 14.1ZM120.453 10.98C120.453 12.26 120.743 13.37 121.323 14.31C121.903 15.23 122.663 15.93 123.603 16.41C124.563 16.89 125.613 17.13 126.753 17.13C127.753 17.13 128.633 17 129.393 16.74C130.153 16.48 130.833 16.14 131.433 15.72C132.033 15.3 132.563 14.85 133.023 14.37V19.83C132.183 20.49 131.263 21.01 130.263 21.39C129.263 21.77 127.993 21.96 126.453 21.96C124.773 21.96 123.223 21.7 121.803 21.18C120.383 20.66 119.163 19.91 118.143 18.93C117.123 17.95 116.333 16.79 115.773 15.45C115.213 14.11 114.933 12.62 114.933 10.98C114.933 9.34 115.213 7.85 115.773 6.51C116.333 5.17 117.123 4.01 118.143 3.03C119.163 2.05 120.383 1.3 121.803 0.779998C123.223 0.259999 124.773 -1.07288e-06 126.453 -1.07288e-06C127.993 -1.07288e-06 129.263 0.189999 130.263 0.569999C131.263 0.949999 132.183 1.47 133.023 2.13V7.59C132.563 7.11 132.033 6.66 131.433 6.24C130.833 5.8 130.153 5.46 129.393 5.22C128.633 4.96 127.753 4.83 126.753 4.83C125.613 4.83 124.563 5.07 123.603 5.55C122.663 6.03 121.903 6.73 121.323 7.65C120.743 8.57 120.453 9.68 120.453 10.98ZM138.578 12.69V8.13H154.478V12.69H138.578ZM151.268 0.479998H156.338V21.48H151.268V0.479998ZM137.168 0.479998H142.238V21.48H137.168V0.479998ZM164.922 10.98C164.922 12.22 165.162 13.32 165.642 14.28C166.142 15.22 166.832 15.96 167.712 16.5C168.612 17.04 169.662 17.31 170.862 17.31C172.042 17.31 173.072 17.04 173.952 16.5C174.852 15.96 175.542 15.22 176.022 14.28C176.522 13.32 176.772 12.22 176.772 10.98C176.772 9.74 176.532 8.65 176.052 7.71C175.572 6.75 174.892 6 174.012 5.46C173.132 4.92 172.082 4.65 170.862 4.65C169.662 4.65 168.612 4.92 167.712 5.46C166.832 6 166.142 6.75 165.642 7.71C165.162 8.65 164.922 9.74 164.922 10.98ZM159.552 10.98C159.552 9.36 159.832 7.88 160.392 6.54C160.972 5.2 161.772 4.04 162.792 3.06C163.812 2.08 165.012 1.33 166.392 0.809999C167.772 0.269999 169.262 -1.07288e-06 170.862 -1.07288e-06C172.482 -1.07288e-06 173.972 0.269999 175.332 0.809999C176.712 1.33 177.912 2.08 178.932 3.06C179.952 4.04 180.742 5.2 181.302 6.54C181.862 7.88 182.142 9.36 182.142 10.98C182.142 12.6 181.862 14.09 181.302 15.45C180.762 16.81 179.982 17.99 178.962 18.99C177.962 19.99 176.772 20.77 175.392 21.33C174.012 21.87 172.502 22.14 170.862 22.14C169.202 22.14 167.682 21.87 166.302 21.33C164.922 20.77 163.722 19.99 162.702 18.99C161.702 17.99 160.922 16.81 160.362 15.45C159.822 14.09 159.552 12.6 159.552 10.98ZM189.561 10.98C189.561 12.22 189.801 13.32 190.281 14.28C190.781 15.22 191.471 15.96 192.351 16.5C193.251 17.04 194.301 17.31 195.501 17.31C196.681 17.31 197.711 17.04 198.591 16.5C199.491 15.96 200.181 15.22 200.661 14.28C201.161 13.32 201.411 12.22 201.411 10.98C201.411 9.74 201.171 8.65 200.691 7.71C200.211 6.75 199.531 6 198.651 5.46C197.771 4.92 196.721 4.65 195.501 4.65C194.301 4.65 193.251 4.92 192.351 5.46C191.471 6 190.781 6.75 190.281 7.71C189.801 8.65 189.561 9.74 189.561 10.98ZM184.191 10.98C184.191 9.36 184.471 7.88 185.031 6.54C185.611 5.2 186.411 4.04 187.431 3.06C188.451 2.08 189.651 1.33 191.031 0.809999C192.411 0.269999 193.901 -1.07288e-06 195.501 -1.07288e-06C197.121 -1.07288e-06 198.611 0.269999 199.971 0.809999C201.351 1.33 202.551 2.08 203.571 3.06C204.591 4.04 205.381 5.2 205.941 6.54C206.501 7.88 206.781 9.36 206.781 10.98C206.781 12.6 206.501 14.09 205.941 15.45C205.401 16.81 204.621 17.99 203.601 18.99C202.601 19.99 201.411 20.77 200.031 21.33C198.651 21.87 197.141 22.14 195.501 22.14C193.841 22.14 192.321 21.87 190.941 21.33C189.561 20.77 188.361 19.99 187.341 18.99C186.341 17.99 185.561 16.81 185.001 15.45C184.461 14.09 184.191 12.6 184.191 10.98ZM210.029 0.479998H215.099V17.13H223.529V21.48H210.029V0.479998Z" fill="white"/>
</svg>
