<svg width="121" height="22" viewBox="0 0 121 22" fill="none" xmlns="http://www.w3.org/2000/svg">
<path d="M-6.09457e-06 15.9899V12.5999H18.78V15.9899H-6.09457e-06ZM32.2601 0.41992H36.5501V21.4199H32.2601V0.41992ZM34.8701 4.04992V0.41992H39.0401C40.7001 0.41992 42.1101 0.689921 43.2701 1.22992C44.4501 1.76992 45.3501 2.53992 45.9701 3.53992C46.5901 4.53992 46.9001 5.72992 46.9001 7.10992C46.9001 8.46992 46.5901 9.65992 45.9701 10.6799C45.3501 11.6799 44.4501 12.4499 43.2701 12.9899C42.1101 13.5299 40.7001 13.7999 39.0401 13.7999H34.8701V10.1699H39.0401C40.1801 10.1699 41.0801 9.90992 41.7401 9.38992C42.4001 8.86992 42.7301 8.10992 42.7301 7.10992C42.7301 6.08992 42.4001 5.32992 41.7401 4.82992C41.0801 4.30992 40.1801 4.04992 39.0401 4.04992H34.8701ZM54.9891 11.6399H59.5191L66.3591 21.4199H61.2891L54.9891 11.6399ZM50.2191 0.41992H54.5091V21.4199H50.2191V0.41992ZM52.8291 4.07992V0.41992H57.2691C58.9291 0.41992 60.3391 0.69992 61.4991 1.25992C62.6591 1.81992 63.5491 2.59992 64.1691 3.59992C64.7891 4.59992 65.0991 5.76992 65.0991 7.10992C65.0991 8.42992 64.7891 9.59992 64.1691 10.6199C63.5491 11.6199 62.6591 12.3999 61.4991 12.9599C60.3391 13.5199 58.9291 13.7999 57.2691 13.7999H52.8291V10.3799H56.9991C57.7591 10.3799 58.4091 10.2599 58.9491 10.0199C59.5091 9.75992 59.9391 9.39992 60.2391 8.93992C60.5391 8.45992 60.6891 7.88992 60.6891 7.22992C60.6891 6.56992 60.5391 6.00992 60.2391 5.54992C59.9391 5.06992 59.5091 4.70992 58.9491 4.46992C58.4091 4.20992 57.7591 4.07992 56.9991 4.07992H52.8291ZM72.1526 10.9199C72.1526 12.2599 72.4326 13.4499 72.9926 14.4899C73.5526 15.5299 74.3226 16.3499 75.3026 16.9499C76.2826 17.5499 77.4226 17.8499 78.7226 17.8499C80.0226 17.8499 81.1626 17.5499 82.1426 16.9499C83.1226 16.3499 83.8826 15.5299 84.4226 14.4899C84.9826 13.4499 85.2626 12.2599 85.2626 10.9199C85.2626 9.57992 84.9926 8.38992 84.4526 7.34992C83.9126 6.30992 83.1526 5.48992 82.1726 4.88992C81.1926 4.28992 80.0426 3.98992 78.7226 3.98992C77.4226 3.98992 76.2826 4.28992 75.3026 4.88992C74.3226 5.48992 73.5526 6.30992 72.9926 7.34992C72.4326 8.38992 72.1526 9.57992 72.1526 10.9199ZM67.6226 10.9199C67.6226 9.31992 67.9026 7.85992 68.4626 6.53992C69.0226 5.19992 69.8026 4.03992 70.8026 3.05992C71.8026 2.07992 72.9726 1.32992 74.3126 0.809921C75.6726 0.269921 77.1426 -7.95126e-05 78.7226 -7.95126e-05C80.3226 -7.95126e-05 81.7926 0.269921 83.1326 0.809921C84.4726 1.32992 85.6426 2.07992 86.6426 3.05992C87.6626 4.03992 88.4426 5.19992 88.9826 6.53992C89.5426 7.85992 89.8226 9.31992 89.8226 10.9199C89.8226 12.4999 89.5426 13.9699 88.9826 15.3299C88.4426 16.6699 87.6726 17.8399 86.6726 18.8399C85.6926 19.8399 84.5226 20.6199 83.1626 21.1799C81.8226 21.7199 80.3426 21.9899 78.7226 21.9899C77.1026 21.9899 75.6126 21.7199 74.2526 21.1799C72.9126 20.6199 71.7426 19.8399 70.7426 18.8399C69.7426 17.8399 68.9726 16.6699 68.4326 15.3299C67.8926 13.9699 67.6226 12.4999 67.6226 10.9199ZM101.953 15.9899V12.5999H120.733V15.9899H101.953Z" fill="white"/>
</svg>
