<svg width="147" height="22" viewBox="0 0 147 22" fill="none" xmlns="http://www.w3.org/2000/svg">
<path d="M2.4423e-05 15.9899V12.5999H18.78V15.9899H2.4423e-05ZM37.0301 11.6399H41.5601L48.4001 21.4199H43.3301L37.0301 11.6399ZM32.2601 0.41992H36.5501V21.4199H32.2601V0.41992ZM34.8701 4.07992V0.41992H39.3101C40.9701 0.41992 42.3801 0.69992 43.5401 1.25992C44.7001 1.81992 45.5901 2.59992 46.2101 3.59992C46.8301 4.59992 47.1401 5.76992 47.1401 7.10992C47.1401 8.42992 46.8301 9.59992 46.2101 10.6199C45.5901 11.6199 44.7001 12.3999 43.5401 12.9599C42.3801 13.5199 40.9701 13.7999 39.3101 13.7999H34.8701V10.3799H39.0401C39.8001 10.3799 40.4501 10.2599 40.9901 10.0199C41.5501 9.75992 41.9801 9.39992 42.2801 8.93992C42.5801 8.45992 42.7301 7.88992 42.7301 7.22992C42.7301 6.56992 42.5801 6.00992 42.2801 5.54992C41.9801 5.06992 41.5501 4.70992 40.9901 4.46992C40.4501 4.20992 39.8001 4.07992 39.0401 4.07992H34.8701ZM54.1936 10.9199C54.1936 12.2599 54.4736 13.4499 55.0336 14.4899C55.5936 15.5299 56.3636 16.3499 57.3436 16.9499C58.3236 17.5499 59.4636 17.8499 60.7636 17.8499C62.0636 17.8499 63.2036 17.5499 64.1836 16.9499C65.1636 16.3499 65.9236 15.5299 66.4636 14.4899C67.0236 13.4499 67.3036 12.2599 67.3036 10.9199C67.3036 9.57992 67.0336 8.38992 66.4936 7.34992C65.9536 6.30992 65.1936 5.48992 64.2136 4.88992C63.2336 4.28992 62.0836 3.98992 60.7636 3.98992C59.4636 3.98992 58.3236 4.28992 57.3436 4.88992C56.3636 5.48992 55.5936 6.30992 55.0336 7.34992C54.4736 8.38992 54.1936 9.57992 54.1936 10.9199ZM49.6636 10.9199C49.6636 9.31992 49.9436 7.85992 50.5036 6.53992C51.0636 5.19992 51.8436 4.03992 52.8436 3.05992C53.8436 2.07992 55.0136 1.32992 56.3536 0.809921C57.7136 0.269921 59.1836 -7.95126e-05 60.7636 -7.95126e-05C62.3636 -7.95126e-05 63.8336 0.269921 65.1736 0.809921C66.5136 1.32992 67.6836 2.07992 68.6836 3.05992C69.7036 4.03992 70.4836 5.19992 71.0236 6.53992C71.5836 7.85992 71.8636 9.31992 71.8636 10.9199C71.8636 12.4999 71.5836 13.9699 71.0236 15.3299C70.4836 16.6699 69.7136 17.8399 68.7136 18.8399C67.7336 19.8399 66.5636 20.6199 65.2036 21.1799C63.8636 21.7199 62.3836 21.9899 60.7636 21.9899C59.1436 21.9899 57.6536 21.7199 56.2936 21.1799C54.9536 20.6199 53.7836 19.8399 52.7836 18.8399C51.7836 17.8399 51.0136 16.6699 50.4736 15.3299C49.9336 13.9699 49.6636 12.4999 49.6636 10.9199ZM78.39 10.7699V8.81992H81.78C82.4 8.81992 82.94 8.71992 83.4 8.51992C83.86 8.31992 84.21 8.02992 84.45 7.64992C84.71 7.26992 84.84 6.81992 84.84 6.29992C84.84 5.49992 84.56 4.88992 84 4.46992C83.46 4.04992 82.72 3.83992 81.78 3.83992H79.47V17.9999H82.23C82.95 17.9999 83.6 17.8999 84.18 17.6999C84.76 17.4799 85.21 17.1399 85.53 16.6799C85.87 16.2199 86.04 15.6299 86.04 14.9099C86.04 14.3899 85.94 13.9499 85.74 13.5899C85.56 13.2099 85.29 12.8999 84.93 12.6599C84.59 12.3999 84.19 12.2199 83.73 12.1199C83.27 11.9999 82.77 11.9399 82.23 11.9399H78.39V9.59992H82.62C83.64 9.59992 84.61 9.70992 85.53 9.92992C86.47 10.1499 87.31 10.4999 88.05 10.9799C88.79 11.4399 89.37 12.0399 89.79 12.7799C90.23 13.5199 90.45 14.4099 90.45 15.4499C90.45 16.8299 90.12 17.9599 89.46 18.8399C88.82 19.7199 87.91 20.3699 86.73 20.7899C85.55 21.2099 84.18 21.4199 82.62 21.4199H75.18V0.41992H82.17C83.57 0.41992 84.8 0.619921 85.86 1.01992C86.92 1.39992 87.75 1.97992 88.35 2.75992C88.95 3.53992 89.25 4.52992 89.25 5.72992C89.25 6.78992 88.95 7.69992 88.35 8.45992C87.75 9.21992 86.92 9.79992 85.86 10.1999C84.8 10.5799 83.57 10.7699 82.17 10.7699H78.39ZM97.4358 10.9199C97.4358 12.2599 97.7158 13.4499 98.2758 14.4899C98.8358 15.5299 99.6058 16.3499 100.586 16.9499C101.566 17.5499 102.706 17.8499 104.006 17.8499C105.306 17.8499 106.446 17.5499 107.426 16.9499C108.406 16.3499 109.166 15.5299 109.706 14.4899C110.266 13.4499 110.546 12.2599 110.546 10.9199C110.546 9.57992 110.276 8.38992 109.736 7.34992C109.196 6.30992 108.436 5.48992 107.456 4.88992C106.476 4.28992 105.326 3.98992 104.006 3.98992C102.706 3.98992 101.566 4.28992 100.586 4.88992C99.6058 5.48992 98.8358 6.30992 98.2758 7.34992C97.7158 8.38992 97.4358 9.57992 97.4358 10.9199ZM92.9058 10.9199C92.9058 9.31992 93.1858 7.85992 93.7458 6.53992C94.3058 5.19992 95.0858 4.03992 96.0858 3.05992C97.0858 2.07992 98.2558 1.32992 99.5958 0.809921C100.956 0.269921 102.426 -7.95126e-05 104.006 -7.95126e-05C105.606 -7.95126e-05 107.076 0.269921 108.416 0.809921C109.756 1.32992 110.926 2.07992 111.926 3.05992C112.946 4.03992 113.726 5.19992 114.266 6.53992C114.826 7.85992 115.106 9.31992 115.106 10.9199C115.106 12.4999 114.826 13.9699 114.266 15.3299C113.726 16.6699 112.956 17.8399 111.956 18.8399C110.976 19.8399 109.806 20.6199 108.446 21.1799C107.106 21.7199 105.626 21.9899 104.006 21.9899C102.386 21.9899 100.896 21.7199 99.5358 21.1799C98.1958 20.6199 97.0258 19.8399 96.0258 18.8399C95.0258 17.8399 94.2558 16.6699 93.7158 15.3299C93.1758 13.9699 92.9058 12.4999 92.9058 10.9199ZM127.236 15.9899V12.5999H146.016V15.9899H127.236Z" fill="#141024"/>
</svg>
